<mxfile host="app.diagrams.net" modified="2021-09-20T09:39:21.668Z" agent="5.0 (Macintosh; Intel Mac OS X 10_15_7) AppleWebKit/537.36 (KHTML, like Gecko) Chrome/93.0.4577.82 Safari/537.36 Edg/93.0.961.52" etag="mV7uKpt_XRZEeYoH1sRP" version="15.2.9" type="github">
  <diagram id="O3Q__ahrAheOUeJwMwZC" name="第 1 页">
    <mxGraphModel dx="1527" dy="1019" grid="0" gridSize="10" guides="1" tooltips="1" connect="1" arrows="1" fold="1" page="1" pageScale="1" pageWidth="827" pageHeight="1169" background="#B0E3E6" math="0" shadow="0">
      <root>
        <mxCell id="0" />
        <mxCell id="1" parent="0" />
        <mxCell id="kmuAxope0wgHTmXy5dlR-3" value="" style="edgeStyle=orthogonalEdgeStyle;rounded=0;orthogonalLoop=1;jettySize=auto;html=1;labelBackgroundColor=#B0E3E6;strokeColor=#182E3E;fontColor=#1A1A1A;" edge="1" parent="1" source="kmuAxope0wgHTmXy5dlR-1" target="kmuAxope0wgHTmXy5dlR-2">
          <mxGeometry relative="1" as="geometry" />
        </mxCell>
        <mxCell id="kmuAxope0wgHTmXy5dlR-1" value="&lt;font style=&quot;font-size: 17px&quot;&gt;开始&lt;/font&gt;" style="rounded=1;whiteSpace=wrap;html=1;fillColor=#F08E81;strokeColor=#FFFFFF;fontColor=#1A1A1A;" vertex="1" parent="1">
          <mxGeometry x="160" y="190" width="120" height="60" as="geometry" />
        </mxCell>
        <mxCell id="kmuAxope0wgHTmXy5dlR-6" value="" style="edgeStyle=orthogonalEdgeStyle;rounded=0;orthogonalLoop=1;jettySize=auto;html=1;labelBackgroundColor=#B0E3E6;strokeColor=#182E3E;fontColor=#1A1A1A;" edge="1" parent="1" source="kmuAxope0wgHTmXy5dlR-2" target="kmuAxope0wgHTmXy5dlR-4">
          <mxGeometry relative="1" as="geometry" />
        </mxCell>
        <mxCell id="kmuAxope0wgHTmXy5dlR-21" style="edgeStyle=orthogonalEdgeStyle;rounded=0;orthogonalLoop=1;jettySize=auto;html=1;entryX=0;entryY=0.5;entryDx=0;entryDy=0;jumpStyle=arc;labelBackgroundColor=#B0E3E6;strokeColor=#182E3E;fontColor=#1A1A1A;" edge="1" parent="1" source="kmuAxope0wgHTmXy5dlR-2" target="kmuAxope0wgHTmXy5dlR-14">
          <mxGeometry relative="1" as="geometry">
            <Array as="points">
              <mxPoint x="380" y="320" />
              <mxPoint x="380" y="820" />
            </Array>
          </mxGeometry>
        </mxCell>
        <mxCell id="kmuAxope0wgHTmXy5dlR-22" value="&lt;font style=&quot;font-size: 16px&quot;&gt;是&lt;/font&gt;" style="edgeLabel;html=1;align=center;verticalAlign=middle;resizable=0;points=[];labelBackgroundColor=#B0E3E6;fontColor=#1A1A1A;" vertex="1" connectable="0" parent="kmuAxope0wgHTmXy5dlR-21">
          <mxGeometry x="-0.4242" relative="1" as="geometry">
            <mxPoint as="offset" />
          </mxGeometry>
        </mxCell>
        <mxCell id="kmuAxope0wgHTmXy5dlR-2" value="&lt;font style=&quot;font-size: 18px&quot;&gt;是否额度白名单用户&lt;/font&gt;" style="rhombus;whiteSpace=wrap;html=1;fillColor=#F08E81;strokeColor=#FFFFFF;fontColor=#1A1A1A;" vertex="1" parent="1">
          <mxGeometry x="120" y="290" width="200" height="60" as="geometry" />
        </mxCell>
        <mxCell id="kmuAxope0wgHTmXy5dlR-8" value="" style="edgeStyle=orthogonalEdgeStyle;rounded=0;orthogonalLoop=1;jettySize=auto;html=1;labelBackgroundColor=#B0E3E6;strokeColor=#182E3E;fontColor=#1A1A1A;" edge="1" parent="1" source="kmuAxope0wgHTmXy5dlR-4" target="kmuAxope0wgHTmXy5dlR-7">
          <mxGeometry relative="1" as="geometry" />
        </mxCell>
        <mxCell id="kmuAxope0wgHTmXy5dlR-23" style="edgeStyle=orthogonalEdgeStyle;rounded=0;jumpStyle=arc;orthogonalLoop=1;jettySize=auto;html=1;entryX=0;entryY=0.5;entryDx=0;entryDy=0;labelBackgroundColor=#B0E3E6;strokeColor=#182E3E;fontColor=#1A1A1A;" edge="1" parent="1" source="kmuAxope0wgHTmXy5dlR-4" target="kmuAxope0wgHTmXy5dlR-20">
          <mxGeometry relative="1" as="geometry" />
        </mxCell>
        <mxCell id="kmuAxope0wgHTmXy5dlR-26" value="&lt;font style=&quot;font-size: 16px&quot;&gt;否&lt;/font&gt;" style="edgeLabel;html=1;align=center;verticalAlign=middle;resizable=0;points=[];labelBackgroundColor=#B0E3E6;fontColor=#1A1A1A;" vertex="1" connectable="0" parent="kmuAxope0wgHTmXy5dlR-23">
          <mxGeometry x="0.4222" y="-2" relative="1" as="geometry">
            <mxPoint as="offset" />
          </mxGeometry>
        </mxCell>
        <mxCell id="kmuAxope0wgHTmXy5dlR-4" value="&lt;font style=&quot;font-size: 18px&quot;&gt;法人信息是否完整&lt;/font&gt;" style="rhombus;whiteSpace=wrap;html=1;fillColor=#F08E81;strokeColor=#FFFFFF;fontColor=#1A1A1A;" vertex="1" parent="1">
          <mxGeometry x="120" y="380" width="200" height="60" as="geometry" />
        </mxCell>
        <mxCell id="kmuAxope0wgHTmXy5dlR-10" value="" style="edgeStyle=orthogonalEdgeStyle;rounded=0;orthogonalLoop=1;jettySize=auto;html=1;labelBackgroundColor=#B0E3E6;strokeColor=#182E3E;fontColor=#1A1A1A;" edge="1" parent="1" source="kmuAxope0wgHTmXy5dlR-7" target="kmuAxope0wgHTmXy5dlR-9">
          <mxGeometry relative="1" as="geometry" />
        </mxCell>
        <mxCell id="kmuAxope0wgHTmXy5dlR-24" style="edgeStyle=orthogonalEdgeStyle;rounded=0;jumpStyle=arc;orthogonalLoop=1;jettySize=auto;html=1;entryX=0.5;entryY=1;entryDx=0;entryDy=0;labelBackgroundColor=#B0E3E6;strokeColor=#182E3E;fontColor=#1A1A1A;" edge="1" parent="1" source="kmuAxope0wgHTmXy5dlR-7" target="kmuAxope0wgHTmXy5dlR-20">
          <mxGeometry relative="1" as="geometry" />
        </mxCell>
        <mxCell id="kmuAxope0wgHTmXy5dlR-25" value="&lt;font style=&quot;font-size: 16px&quot;&gt;是&lt;/font&gt;" style="edgeLabel;html=1;align=center;verticalAlign=middle;resizable=0;points=[];labelBackgroundColor=#B0E3E6;fontColor=#1A1A1A;" vertex="1" connectable="0" parent="kmuAxope0wgHTmXy5dlR-24">
          <mxGeometry x="-0.0807" y="1" relative="1" as="geometry">
            <mxPoint as="offset" />
          </mxGeometry>
        </mxCell>
        <mxCell id="kmuAxope0wgHTmXy5dlR-7" value="&lt;font style=&quot;font-size: 18px&quot;&gt;法人名下企业数量是否超限&lt;/font&gt;" style="rhombus;whiteSpace=wrap;html=1;fillColor=#F08E81;strokeColor=#FFFFFF;fontColor=#1A1A1A;" vertex="1" parent="1">
          <mxGeometry x="105" y="470" width="230" height="60" as="geometry" />
        </mxCell>
        <mxCell id="kmuAxope0wgHTmXy5dlR-12" style="edgeStyle=orthogonalEdgeStyle;rounded=0;orthogonalLoop=1;jettySize=auto;html=1;labelBackgroundColor=#B0E3E6;strokeColor=#182E3E;fontColor=#1A1A1A;" edge="1" parent="1" source="kmuAxope0wgHTmXy5dlR-9" target="kmuAxope0wgHTmXy5dlR-11">
          <mxGeometry relative="1" as="geometry" />
        </mxCell>
        <mxCell id="kmuAxope0wgHTmXy5dlR-13" value="&lt;font style=&quot;font-size: 15px&quot;&gt;不通过&lt;/font&gt;" style="edgeLabel;html=1;align=center;verticalAlign=middle;resizable=0;points=[];labelBackgroundColor=#B0E3E6;fontColor=#1A1A1A;" vertex="1" connectable="0" parent="kmuAxope0wgHTmXy5dlR-12">
          <mxGeometry x="0.0345" y="-1" relative="1" as="geometry">
            <mxPoint as="offset" />
          </mxGeometry>
        </mxCell>
        <mxCell id="kmuAxope0wgHTmXy5dlR-16" style="edgeStyle=orthogonalEdgeStyle;rounded=0;orthogonalLoop=1;jettySize=auto;html=1;entryX=0;entryY=0.5;entryDx=0;entryDy=0;labelBackgroundColor=#B0E3E6;strokeColor=#182E3E;fontColor=#1A1A1A;" edge="1" parent="1" source="kmuAxope0wgHTmXy5dlR-9" target="kmuAxope0wgHTmXy5dlR-15">
          <mxGeometry relative="1" as="geometry">
            <Array as="points">
              <mxPoint x="220" y="710" />
            </Array>
          </mxGeometry>
        </mxCell>
        <mxCell id="kmuAxope0wgHTmXy5dlR-17" value="&lt;font style=&quot;font-size: 16px&quot;&gt;无数据&lt;/font&gt;" style="edgeLabel;html=1;align=center;verticalAlign=middle;resizable=0;points=[];labelBackgroundColor=#B0E3E6;fontColor=#1A1A1A;" vertex="1" connectable="0" parent="kmuAxope0wgHTmXy5dlR-16">
          <mxGeometry x="-0.1029" y="1" relative="1" as="geometry">
            <mxPoint as="offset" />
          </mxGeometry>
        </mxCell>
        <mxCell id="kmuAxope0wgHTmXy5dlR-18" style="edgeStyle=orthogonalEdgeStyle;rounded=0;orthogonalLoop=1;jettySize=auto;html=1;entryX=0;entryY=0.5;entryDx=0;entryDy=0;exitX=0;exitY=0.5;exitDx=0;exitDy=0;labelBackgroundColor=#B0E3E6;strokeColor=#182E3E;fontColor=#1A1A1A;" edge="1" parent="1" source="kmuAxope0wgHTmXy5dlR-9" target="kmuAxope0wgHTmXy5dlR-14">
          <mxGeometry relative="1" as="geometry">
            <mxPoint x="100" y="590" as="sourcePoint" />
            <Array as="points">
              <mxPoint x="105" y="820" />
            </Array>
          </mxGeometry>
        </mxCell>
        <mxCell id="kmuAxope0wgHTmXy5dlR-19" value="&lt;font style=&quot;font-size: 16px&quot;&gt;通过&lt;/font&gt;" style="edgeLabel;html=1;align=center;verticalAlign=middle;resizable=0;points=[];labelBackgroundColor=#B0E3E6;fontColor=#1A1A1A;" vertex="1" connectable="0" parent="kmuAxope0wgHTmXy5dlR-18">
          <mxGeometry x="0.1504" y="-3" relative="1" as="geometry">
            <mxPoint as="offset" />
          </mxGeometry>
        </mxCell>
        <mxCell id="kmuAxope0wgHTmXy5dlR-9" value="&lt;font style=&quot;font-size: 18px&quot;&gt;AGDS校验&lt;/font&gt;" style="rhombus;whiteSpace=wrap;html=1;fillColor=#F08E81;strokeColor=#FFFFFF;fontColor=#1A1A1A;" vertex="1" parent="1">
          <mxGeometry x="105" y="560" width="230" height="60" as="geometry" />
        </mxCell>
        <mxCell id="kmuAxope0wgHTmXy5dlR-33" style="edgeStyle=orthogonalEdgeStyle;rounded=0;jumpStyle=arc;orthogonalLoop=1;jettySize=auto;html=1;entryX=0;entryY=0.5;entryDx=0;entryDy=0;labelBackgroundColor=#B0E3E6;strokeColor=#182E3E;fontColor=#1A1A1A;" edge="1" parent="1" source="kmuAxope0wgHTmXy5dlR-11" target="kmuAxope0wgHTmXy5dlR-27">
          <mxGeometry relative="1" as="geometry">
            <Array as="points">
              <mxPoint x="720" y="590" />
              <mxPoint x="720" y="490" />
            </Array>
          </mxGeometry>
        </mxCell>
        <mxCell id="kmuAxope0wgHTmXy5dlR-11" value="&lt;font style=&quot;font-size: 18px&quot;&gt;DENY&lt;/font&gt;" style="rounded=1;whiteSpace=wrap;html=1;fillColor=#F08E81;strokeColor=#FFFFFF;fontColor=#1A1A1A;" vertex="1" parent="1">
          <mxGeometry x="480" y="560" width="120" height="60" as="geometry" />
        </mxCell>
        <mxCell id="kmuAxope0wgHTmXy5dlR-30" style="edgeStyle=orthogonalEdgeStyle;rounded=0;jumpStyle=arc;orthogonalLoop=1;jettySize=auto;html=1;labelBackgroundColor=#B0E3E6;strokeColor=#182E3E;fontColor=#1A1A1A;" edge="1" parent="1" source="kmuAxope0wgHTmXy5dlR-14" target="kmuAxope0wgHTmXy5dlR-29">
          <mxGeometry relative="1" as="geometry" />
        </mxCell>
        <mxCell id="kmuAxope0wgHTmXy5dlR-14" value="&lt;font style=&quot;font-size: 18px&quot;&gt;NORMAL&lt;/font&gt;" style="rounded=1;whiteSpace=wrap;html=1;fillColor=#F08E81;strokeColor=#FFFFFF;fontColor=#1A1A1A;" vertex="1" parent="1">
          <mxGeometry x="480" y="790" width="120" height="60" as="geometry" />
        </mxCell>
        <mxCell id="kmuAxope0wgHTmXy5dlR-31" style="edgeStyle=orthogonalEdgeStyle;rounded=0;jumpStyle=arc;orthogonalLoop=1;jettySize=auto;html=1;entryX=0;entryY=0.5;entryDx=0;entryDy=0;labelBackgroundColor=#B0E3E6;strokeColor=#182E3E;fontColor=#1A1A1A;" edge="1" parent="1" source="kmuAxope0wgHTmXy5dlR-15" target="kmuAxope0wgHTmXy5dlR-28">
          <mxGeometry relative="1" as="geometry" />
        </mxCell>
        <mxCell id="kmuAxope0wgHTmXy5dlR-15" value="&lt;font style=&quot;font-size: 18px&quot;&gt;NONE&lt;/font&gt;" style="rounded=1;whiteSpace=wrap;html=1;fillColor=#F08E81;strokeColor=#FFFFFF;fontColor=#1A1A1A;" vertex="1" parent="1">
          <mxGeometry x="480" y="680" width="120" height="60" as="geometry" />
        </mxCell>
        <mxCell id="kmuAxope0wgHTmXy5dlR-32" style="edgeStyle=orthogonalEdgeStyle;rounded=0;jumpStyle=arc;orthogonalLoop=1;jettySize=auto;html=1;entryX=0;entryY=0.5;entryDx=0;entryDy=0;labelBackgroundColor=#B0E3E6;strokeColor=#182E3E;fontColor=#1A1A1A;" edge="1" parent="1" source="kmuAxope0wgHTmXy5dlR-20" target="kmuAxope0wgHTmXy5dlR-27">
          <mxGeometry relative="1" as="geometry">
            <Array as="points">
              <mxPoint x="720" y="390" />
              <mxPoint x="720" y="490" />
            </Array>
          </mxGeometry>
        </mxCell>
        <mxCell id="kmuAxope0wgHTmXy5dlR-20" value="&lt;span style=&quot;font-size: 18px&quot;&gt;LEGAL_DENY&lt;/span&gt;" style="rounded=1;whiteSpace=wrap;html=1;fillColor=#F08E81;strokeColor=#FFFFFF;fontColor=#1A1A1A;" vertex="1" parent="1">
          <mxGeometry x="475" y="380" width="130" height="60" as="geometry" />
        </mxCell>
        <mxCell id="kmuAxope0wgHTmXy5dlR-35" style="edgeStyle=orthogonalEdgeStyle;rounded=0;jumpStyle=arc;orthogonalLoop=1;jettySize=auto;html=1;entryX=0;entryY=0.5;entryDx=0;entryDy=0;labelBackgroundColor=#B0E3E6;strokeColor=#182E3E;fontColor=#1A1A1A;" edge="1" parent="1" source="kmuAxope0wgHTmXy5dlR-27" target="kmuAxope0wgHTmXy5dlR-34">
          <mxGeometry relative="1" as="geometry">
            <mxPoint x="1200" y="720" as="targetPoint" />
            <Array as="points">
              <mxPoint x="1130" y="490" />
              <mxPoint x="1130" y="710" />
            </Array>
          </mxGeometry>
        </mxCell>
        <mxCell id="kmuAxope0wgHTmXy5dlR-27" value="&lt;span style=&quot;font-size: 18px&quot;&gt;客户不准入，额度配置为0&lt;/span&gt;" style="rounded=1;whiteSpace=wrap;html=1;fillColor=#F08E81;strokeColor=#FFFFFF;fontColor=#1A1A1A;" vertex="1" parent="1">
          <mxGeometry x="828.5" y="460" width="243" height="60" as="geometry" />
        </mxCell>
        <mxCell id="kmuAxope0wgHTmXy5dlR-36" style="edgeStyle=orthogonalEdgeStyle;rounded=0;jumpStyle=arc;orthogonalLoop=1;jettySize=auto;html=1;entryX=0;entryY=0.5;entryDx=0;entryDy=0;labelBackgroundColor=#B0E3E6;strokeColor=#182E3E;fontColor=#1A1A1A;" edge="1" parent="1" source="kmuAxope0wgHTmXy5dlR-28" target="kmuAxope0wgHTmXy5dlR-34">
          <mxGeometry relative="1" as="geometry" />
        </mxCell>
        <mxCell id="kmuAxope0wgHTmXy5dlR-28" value="&lt;span style=&quot;font-size: 18px&quot;&gt;客户准入，额度配置为最小可用额度（500万）&lt;/span&gt;" style="rounded=1;whiteSpace=wrap;html=1;fillColor=#F08E81;strokeColor=#FFFFFF;fontColor=#1A1A1A;" vertex="1" parent="1">
          <mxGeometry x="828.5" y="680" width="243" height="60" as="geometry" />
        </mxCell>
        <mxCell id="kmuAxope0wgHTmXy5dlR-37" style="edgeStyle=orthogonalEdgeStyle;rounded=0;jumpStyle=arc;orthogonalLoop=1;jettySize=auto;html=1;entryX=0;entryY=0.5;entryDx=0;entryDy=0;labelBackgroundColor=#B0E3E6;strokeColor=#182E3E;fontColor=#1A1A1A;" edge="1" parent="1" source="kmuAxope0wgHTmXy5dlR-29" target="kmuAxope0wgHTmXy5dlR-34">
          <mxGeometry relative="1" as="geometry">
            <Array as="points">
              <mxPoint x="1130" y="820" />
              <mxPoint x="1130" y="710" />
            </Array>
          </mxGeometry>
        </mxCell>
        <mxCell id="kmuAxope0wgHTmXy5dlR-29" value="&lt;span style=&quot;font-size: 18px&quot;&gt;客户准入，额度配置为min{3000万，销售额 * 0.8}&lt;/span&gt;" style="rounded=1;whiteSpace=wrap;html=1;fillColor=#F08E81;strokeColor=#FFFFFF;fontColor=#1A1A1A;" vertex="1" parent="1">
          <mxGeometry x="828.5" y="790" width="240" height="60" as="geometry" />
        </mxCell>
        <mxCell id="kmuAxope0wgHTmXy5dlR-40" value="" style="edgeStyle=orthogonalEdgeStyle;rounded=0;jumpStyle=arc;orthogonalLoop=1;jettySize=auto;html=1;labelBackgroundColor=#B0E3E6;strokeColor=#182E3E;fontColor=#1A1A1A;" edge="1" parent="1" source="kmuAxope0wgHTmXy5dlR-34" target="kmuAxope0wgHTmXy5dlR-39">
          <mxGeometry relative="1" as="geometry" />
        </mxCell>
        <mxCell id="kmuAxope0wgHTmXy5dlR-41" value="&lt;font style=&quot;font-size: 16px&quot;&gt;是&lt;/font&gt;" style="edgeLabel;html=1;align=center;verticalAlign=middle;resizable=0;points=[];labelBackgroundColor=#B0E3E6;fontColor=#1A1A1A;" vertex="1" connectable="0" parent="kmuAxope0wgHTmXy5dlR-40">
          <mxGeometry x="0.1638" y="2" relative="1" as="geometry">
            <mxPoint as="offset" />
          </mxGeometry>
        </mxCell>
        <mxCell id="kmuAxope0wgHTmXy5dlR-42" value="" style="edgeStyle=orthogonalEdgeStyle;rounded=0;jumpStyle=arc;orthogonalLoop=1;jettySize=auto;html=1;labelBackgroundColor=#B0E3E6;strokeColor=#182E3E;fontColor=#1A1A1A;" edge="1" parent="1" source="kmuAxope0wgHTmXy5dlR-34" target="kmuAxope0wgHTmXy5dlR-38">
          <mxGeometry relative="1" as="geometry" />
        </mxCell>
        <mxCell id="kmuAxope0wgHTmXy5dlR-43" value="&lt;font style=&quot;font-size: 16px&quot;&gt;否&lt;/font&gt;" style="edgeLabel;html=1;align=center;verticalAlign=middle;resizable=0;points=[];labelBackgroundColor=#B0E3E6;fontColor=#1A1A1A;" vertex="1" connectable="0" parent="kmuAxope0wgHTmXy5dlR-42">
          <mxGeometry x="-0.1129" relative="1" as="geometry">
            <mxPoint as="offset" />
          </mxGeometry>
        </mxCell>
        <mxCell id="kmuAxope0wgHTmXy5dlR-34" value="&lt;font style=&quot;font-size: 18px&quot;&gt;额度是否人工锁定&lt;/font&gt;" style="rhombus;whiteSpace=wrap;html=1;fillColor=#F08E81;strokeColor=#FFFFFF;fontColor=#1A1A1A;" vertex="1" parent="1">
          <mxGeometry x="1200" y="680" width="230" height="60" as="geometry" />
        </mxCell>
        <mxCell id="kmuAxope0wgHTmXy5dlR-38" value="&lt;span style=&quot;font-size: 18px&quot;&gt;执行额度更新&lt;/span&gt;" style="rounded=1;whiteSpace=wrap;html=1;fillColor=#F08E81;strokeColor=#FFFFFF;fontColor=#1A1A1A;" vertex="1" parent="1">
          <mxGeometry x="1193.5" y="790" width="243" height="60" as="geometry" />
        </mxCell>
        <mxCell id="kmuAxope0wgHTmXy5dlR-39" value="&lt;span style=&quot;font-size: 18px&quot;&gt;额度不发生变更&lt;/span&gt;" style="rounded=1;whiteSpace=wrap;html=1;fillColor=#F08E81;strokeColor=#FFFFFF;fontColor=#1A1A1A;" vertex="1" parent="1">
          <mxGeometry x="1193.5" y="555" width="243" height="60" as="geometry" />
        </mxCell>
        <mxCell id="kmuAxope0wgHTmXy5dlR-44" value="&lt;font style=&quot;font-size: 30px&quot;&gt;额度变更模型&lt;/font&gt;" style="text;html=1;strokeColor=none;fillColor=none;align=center;verticalAlign=middle;whiteSpace=wrap;rounded=0;sketch=0;fontColor=#1A1A1A;" vertex="1" parent="1">
          <mxGeometry x="940" y="210" width="320" height="20" as="geometry" />
        </mxCell>
      </root>
    </mxGraphModel>
  </diagram>
</mxfile>
